<svg id="Layer_1" data-name="Layer 1" xmlns="http://www.w3.org/2000/svg" viewBox="0 0 200 200"><defs><style>.cls-1{fill:#fd2d01;}</style></defs><path class="cls-1" d="M100,0A100,100,0,1,0,200,100,100,100,0,0,0,100,0Zm71.8,57.81H143.11c-3.08-13.88-7.62-26-13.21-35.55A83.75,83.75,0,0,1,171.8,57.81ZM100,16.69c5.56,0,12.84,7.76,18.55,19.76A112.93,112.93,0,0,1,126,57.81H82.7a21.79,21.79,0,0,0-6.53-7.64,102.63,102.63,0,0,1,5.28-13.72C87.16,24.45,94.44,16.69,100,16.69ZM70.1,22.26a111.62,111.62,0,0,0-10.18,24A21.69,21.69,0,0,0,44.08,57.81H28.2A83.75,83.75,0,0,1,70.1,22.26ZM16.69,100a82.81,82.81,0,0,1,4-25.51H42.78a21.71,21.71,0,0,0,10.1,12.19q-.42,6.54-.43,13.32a206.53,206.53,0,0,0,1.4,24.12H20.26A82.85,82.85,0,0,1,16.69,100Zm10.72,40.81H56.59c3.08,14.45,7.73,27.09,13.51,36.93A83.77,83.77,0,0,1,27.41,140.81ZM69.14,100c0-3.86.13-7.69.36-11.48a21.74,21.74,0,0,0,14.5-14h45.13A188,188,0,0,1,130.86,100c0,5.14-.22,10.23-.62,15.24a21.77,21.77,0,0,0-12.56,8.88h-47A188.34,188.34,0,0,1,69.14,100Zm49.41,63.54c-5.71,12-13,19.77-18.55,19.77s-12.84-7.76-18.55-19.77a114.85,114.85,0,0,1-7.74-22.73h40.77a21.73,21.73,0,0,0,8.14,12.72A98,98,0,0,1,118.55,163.54Zm11.35,14.2a107.61,107.61,0,0,0,8.93-20.05,21.71,21.71,0,0,0,18.09-16.88h15.67A83.77,83.77,0,0,1,129.9,177.74Zm23.82-53.62a21.67,21.67,0,0,0-6.92-6.52c.48-5.72.75-11.59.75-17.6A205.7,205.7,0,0,0,146,74.49H179.3a83.2,83.2,0,0,1,.44,49.63Z"/></svg>