<svg id="Layer_1" data-name="Layer 1" xmlns="http://www.w3.org/2000/svg" viewBox="0 0 1323.65 721.75"><defs><style>.cls-1{fill:#dee7f6;}.cls-2{fill:#fea491;}.cls-3{fill:#7089c5;}.cls-4{fill:#4163ae;}.cls-5{fill:#d03127;}.cls-6{fill:#ee3824;}.cls-7{fill:#a9403f;}.cls-8{fill:#98b2dd;}.cls-9{fill:#4b59a7;}.cls-10{fill:#c1d2ec;}.cls-11{fill:#fbd6d6;}.cls-12{fill:#b04f4f;}.cls-13{fill:#efa5a5;}.cls-14{fill:#1d1852;}.cls-15{fill:#101131;}.cls-16{fill:#f8b6b5;}.cls-17{fill:#ed9999;}.cls-18{fill:#ec9696;}.cls-19{fill:#f7a7a7;}.cls-20{fill:#ed9a9b;}.cls-21{fill:#9e332f;}.cls-22{fill:#ea8787;}.cls-23{fill:#241f57;}.cls-24{fill:#f59191;}.cls-25{fill:#f8b5b4;}.cls-26{fill:#ed9898;}.cls-27{fill:#525252;}</style></defs><path class="cls-1" d="M66.12,721.54s-142.19-322.09,138-322.09c148.07,0,87.07-88.37,187.74-190.64s452.73-184,527.66,13.51S809.31,569.75,988.26,544c215-30.91,300,177.51,300,177.51Z"/><path class="cls-2" d="M1217.72,680.67c-13.26-10.31-40.38-3.35-60.39,4.1a95.29,95.29,0,0,0-11-13.58c43.11-29.54,102.65-92.53,71.09-97.86-27.43-4.64-64.45,52.06-84.24,86.58-20.54-14.7-52-25.51-100.09-21.76-124.75,9.73-222.21-75.87-294-47.32-57.12,22.7-109.46,35.41-159.94,31.07,2.17-39.23,2.64-116.24-26.32-124.23-29.4-8.12-.56,79.35,15.47,123q-5.64-.78-11.26-1.84c-10.38-21.76-27.48-50.25-46.26-51.22-17.68-.92,4.15,24.69,25.62,46.38-61.73-13.78-135,39.6-136.18,102.71H1170.9s-1.37-9.21-7.41-21.36C1193.27,694.75,1232.14,691.87,1217.72,680.67Z"/><rect class="cls-3" x="365.17" y="667.95" width="203.13" height="48.79"/><rect class="cls-4" x="302.54" y="667.95" width="203.13" height="48.79"/><rect class="cls-5" x="648.21" y="491.85" width="151.25" height="224.88" transform="translate(1447.68 1208.58) rotate(180)"/><rect class="cls-6" x="601.58" y="491.85" width="151.25" height="224.88" transform="translate(1354.41 1208.58) rotate(180)"/><polygon class="cls-7" points="752.83 491.85 799.47 525.62 799.47 491.85 752.83 491.85"/><path class="cls-8" d="M285.92,541.66s-28.28,22.38-33.8,21,20.67-24.15,20.67-24.15c-9.85-5-40.49-1.88-40.49-1.88s-10.2,35-15.23,32.24,10.52-30.5,10.52-30.5c-11-.71-24.44,8-24.44,8-18.43,15.48,1.21,39.86,1.21,39.86a60,60,0,0,1-15.42,23,52.41,52.41,0,0,0-17.77,36.43l3,.29s4.78-21.76,13.47-32.05l1.43-1.56c1.42-1.39,2.41-2.44,3.08-3.22,4.32-4.42,10.3-10,13.18-10.59a6.54,6.54,0,0,1-.12-1.54c0,.49.08,1,.12,1.54,1,12.31,23.45,23.07,37.28,25.28s9.54-3.83,4.78-12.79-19.83-13-23.27-17.09,3.67-4.14,12-.1,9.47,14.84,22.83,21.64,33.46-16.77,33.46-16.77c-10.65-.58-25.85-12.88-25.3-16.64s25.8,6.49,30.12,7,14.14-5.22,15.66-23.73S285.92,541.66,285.92,541.66Z"/><path class="cls-8" d="M135.7,555.56s31.24-18.61,16.66-43.87c0,0-11.67-15.51-24.16-19.5,0,0,6.66,37.67,0,38.55s-4.58-42.54-4.58-42.54-32.91-16.83-45.83-15.5c0,0,20.42,36.77,13.75,35.89S62,470.48,62,470.48s-33.74-6.65-39.15,14.62,3.33,31.91,8.33,33.24,37.07.88,36.24,5.31-22.49,11.52-34.58,7.54c0,0,13.33,35,30.83,33.23s22.91-13.3,33.74-14.18,18.75,2.21,13.33,5.32-23.74,1-32.49,8.92-15.83,12.79.42,16.33,45.4,1.33,51.23-12Z"/><path class="cls-9" d="M144,587.9c-8.75-17.28-8.33-32.34-8.33-32.34-10-33.68-97.48-63.81-97.48-63.81,111.22,47.85,91.64,77.1,91.64,77.1,3,1.86,7.5,10.73,10.61,17.53.45,1.16,1.15,2.76,2.2,4.94h0c.42,1,.76,1.78,1,2.35,5.73,15.24,2.7,41.56,2.7,41.56l3.47,1C157.52,609.69,144,587.9,144,587.9Z"/><path class="cls-10" d="M185.4,529.89s-41.18-24.53-22-57.82c0,0,15.37-20.45,31.84-25.7,0,0-8.78,49.64,0,50.81s6-56.07,6-56.07,43.38-22.2,60.41-20.44c0,0-26.91,48.48-18.12,47.31s39-50.23,39-50.23S327.07,409,334.21,437s-4.39,42.05-11,43.81-48.87,1.16-47.78,7S305.11,503,321,497.77c0,0-17.57,46.14-40.63,43.8s-30.2-17.52-44.48-18.69-24.71,2.92-17.57,7,31.3,1.34,42.83,11.77,20.86,16.85-.55,21.52-59.85,1.76-67.54-15.77Z"/><path class="cls-9" d="M313.89,445.78S198.58,485.5,185.4,529.89c0,0,.55,19.86-11,42.64,0,0-17.79,28.72-7.65,63.69l4.58-1.31s-4-34.69,3.55-54.78c.31-.74.75-1.8,1.31-3.1h0c1.38-2.87,2.31-5,2.89-6.51,4.11-9,10-20.66,14-23.11C193.09,547.41,167.28,508.86,313.89,445.78Z"/><path class="cls-2" d="M184,712c44.56,0,80.67-38.41,80.67-85.81H103.34C103.34,673.63,139.46,712,184,712Z"/><path class="cls-11" d="M203.86,711.39a77,77,0,0,1-10,.65c-44.55,0-80.67-38.42-80.67-85.81h20C133.21,670,164,706.14,203.86,711.39Z"/><path class="cls-2" d="M255.85,706.14H112.18c-5.5,0-10,4.74-10,10.59H265.8C265.8,710.88,261.34,706.14,255.85,706.14Z"/><path class="cls-12" d="M265.28,626.23H101.93a1.32,1.32,0,0,0,0,2.64H265.28a1.32,1.32,0,0,0,0-2.64Z"/><path class="cls-13" d="M887.79,174.37c-2.34-.38-9.39,6.55-9.39,6.55h0c-15,1.85-37,6.1-45,7.72-5.61,1.15-20.71-4.32-35.46-10.61-17.53-7.48-34.58-16.11-34.58-16.11-9.73-.52-20.78,18.36-1,30.37,3,1.83,14.33,5,27.36,7.82h0c18,3.94,39.22,7.36,46.45,6.16,8.4-1.4,32.18-10.65,46.32-17.74h0l0,0,.16-.07c.84-.43,4.31-2.07,6.62-1.92,2.65.17,8.55-5,8.73-6.37S890.13,174.75,887.79,174.37Z"/><path class="cls-14" d="M869.42,412.29l-8.29,1.79s-37.91-45.31-43.76-64.37c-3.13-10.19-23.14-14.59-44.06-20.35-18.2-5-37.09-11-46.11-22.8-19.39-25.29,12.18-56.36,12.18-56.36s33.56,21.21,62.51,43.13c20.24,15.32,38.23,31,40.94,40C849.41,355.2,863.37,396.8,869.42,412.29Z"/><path class="cls-15" d="M858.33,427.24H863c1.56-.26,2.71-.75,4.31-1,2.43-.34,3.55.72,3.78,1l0,.05h19.79c.5-.76,0-2.51-.44-3.8a2.9,2.9,0,0,0-1.86-1.8c-2.1-.65-6.24-1.23-10-4.88-2.14-2-10.3-7.53-10.3-7.53h0c-.18,0-1,.28-4.75,3.62-1.92,1.72-5.19-2.43-5.19-2.43a4.8,4.8,0,0,0-1.07,1.54,5.56,5.56,0,0,0-.43,3.24c.3,1.89-.66,5.42-1.42,7.8-.46,1.45-.85,2.47-.85,2.47S854.32,426.7,858.33,427.24Z"/><path class="cls-15" d="M801.89,293.33l-28.58,36c-18.2-5-37.09-11-46.11-22.8-19.39-25.29,12.18-56.36,12.18-56.36S772.94,271.41,801.89,293.33Z"/><path class="cls-14" d="M775.92,274.51s-2.3,7.73-6,19.36c-4.74,14.7-11.81,35.63-19.47,55-1.69,4.27-3.4,8.46-5.12,12.5-6.38,14.94-12.9,27.74-18.64,34.25-10.32,11.7-35.41,86.9-35.41,86.9L685,480.72S676.27,416.5,707.14,380a2.34,2.34,0,0,0,.62-1.36v0c.41-5.41,1.88-29.63,5.08-54.18.78-6,1.67-12.06,2.67-17.84.06-.37.13-.74.19-1.1,4.7-26.75,9.2-38.65,15-44.64l42.69,12.93Z"/><path class="cls-15" d="M684.28,491.8h4.66c1.56-.26,2.72-.74,4.32-1,2.43-.34,3.55.72,3.77,1l0,.05h19.8c.5-.76,0-2.51-.45-3.8a2.9,2.9,0,0,0-1.85-1.8c-2.1-.65-6.24-1.22-10-4.87-2.13-2.05-10.3-7.54-10.3-7.54h0c-.18,0-1,.29-4.75,3.62-1.92,1.72-5.19-2.43-5.19-2.43a5,5,0,0,0-1.07,1.55,5.44,5.44,0,0,0-.42,3.23c.29,1.9-.66,5.42-1.42,7.81-.46,1.44-.85,2.47-.85,2.47S680.27,491.27,684.28,491.8Z"/><path class="cls-16" d="M693.44,187.17s-7.14,18.59-15.38,36.68c-6.92,15.21-14.62,30.06-19.5,33.23-6.88,4.48-25.84,17.09-38.13,26.49,0,0-9.6-.07-11.09,1.88s-4.93,10.73-3.92,11.62,8.63.48,10.48-1.54c1.62-1.76,5.22-3,6.11-3.33l.17-.05h0c14.94-4.89,38.37-15.08,45.47-20.06,6.11-4.29,19.65-22,30.45-37.82h0c7.83-11.44,14.23-21.86,15.29-25.38C720.43,185.86,700.3,179.81,693.44,187.17Z"/><path class="cls-14" d="M730.79,114.29a37.61,37.61,0,0,0-2.56-3.51,7.59,7.59,0,0,0,3.15-.51c2.51-1.1,3.65-9.56,3.28-12.07s-3.86-9.78-8.16-10.5-8.73,4.35-8.73,4.35c.8-3.66,8.06-5.78,8.06-5.78-15,2.94-14.2,13.56-14.1,14.54C698,95.62,690,123.06,690,123.06l35.49,22.24s.09-6.06,3.47-5.67C734.23,140.24,738.63,126.45,730.79,114.29Z"/><path class="cls-16" d="M733.05,171.87c-8.14,4.08-18.95-1.8-18.89-1.86.7-.74.45-3-.19-5.87A44.39,44.39,0,0,0,709,152c-.58-1-1.16-2.1-1.86-3.21l.93-.37,15.82-6.75s2.56,4.89,5.23,9.34c2.27,3.72,4.66,7.06,5.7,6.93C734.91,157.89,745.38,165.56,733.05,171.87Z"/><path class="cls-17" d="M723.92,143.35c-.41,6-2.33,16.83-9.95,20.79A44.39,44.39,0,0,0,709,152Z"/><path class="cls-16" d="M708.11,158.84s20.59-8.63,15.34-22.19-6.13-23.81-19.51-18.87S690,129,690.76,134,702.61,160.74,708.11,158.84Z"/><path class="cls-14" d="M715.79,133.56c9.51-1.43,12.28-5.52,12.28-5.52a26.46,26.46,0,0,1-13.9-11.79s-10.69-3.84-18.61,2.57a5.81,5.81,0,0,0-1,2.38c-1.82-.64-4.55-.47-6.12,5-2.37,8.19,6,17.15,6,17.15,2-.62-.26-7.92-.58-11.82-.24-2.87,1.21-6.55,2-8.29,1,1.39,11,14.8,23.29,15.34a50.73,50.73,0,0,1-12.36-7.06C709.77,133,712.88,134,715.79,133.56Z"/><path class="cls-4" d="M772.26,199.81c-.17-.66-.36-1.33-.56-2a53.7,53.7,0,0,0,5.2-16.57c1.4-10-1-16.21-1-16.21s-14.28-8.05-20.59-9.08l-.08,0a1.71,1.71,0,0,0-.25,0c-6.37-.93-20.15,2.06-20.15,2.06A11,11,0,0,1,730,170.48c-7.5,5-15.51-1.29-15.51-1.29l-.76.57h0s-19.73,13.85-21.51,17-9.36,18.85-9.36,18.85,2.41,13.15,29.07,14.25a69.15,69.15,0,0,1,4.42,15.78c2.12,17.86-.34,32,2.13,42.38s47,4.48,55,2.47,6.25-11.16,6.87-20.05C781.12,249.28,774.88,209.66,772.26,199.81Z"/><path class="cls-9" d="M776.9,181.21a53.65,53.65,0,0,1-5.23,16.64c-.7-3.28-3.55-15.28-8.15-20.72C763.52,177.13,771.26,177.87,776.9,181.21Z"/><path class="cls-18" d="M595.75,298.28s8.29-10.68,10.07-11.94,9.61-3.48,10.06-3,.47,1.1-.5,2-4.67,3.21-4.15,3.47,11.7-5.66,13.31-3.67-.91,10.2-5.21,14.14-17.15,5.61-18,6.16C594.51,310.07,595.75,298.28,595.75,298.28Z"/><path class="cls-19" d="M449.81,273.61s11.91,15,27.08,8.74c0,0,3.26-8.39,3.3-14.58,0-.76,0-1.5,0-2.2.08-7,.3-10.87.3-10.87h0c-.69-.3-23.19-10.12-23.17-9.31C457.73,264.22,449.81,273.61,449.81,273.61Z"/><path class="cls-20" d="M459.6,249.87c2.17,4.28,9.61,12.65,20.62,15.7.08-7,.3-10.87.3-10.87h0C479.88,254.52,459,248.61,459.6,249.87Z"/><path class="cls-19" d="M485.23,254s-25.29,6.33-28.75-10.49-9.06-27.32,6.94-32.07,20.48.93,22.91,6.25S491.72,251.89,485.23,254Z"/><path class="cls-21" d="M457.34,248.06c-.34.24-5.79,2-16.09-19.82a20.1,20.1,0,0,1,1.05-17.4c3.77-6.56,17.14-11.71,28.25-14S484.33,201.3,487,208c2.75,7,10.68,12.79,10.68,12.79-9.58,5.7-21.12-2.45-25.12-1.11s-5.41,8-5.71,10.19-.76,3.94-5.79,2-2.27,7.58-1.47,9.39C459.54,241.26,460.23,246.1,457.34,248.06Z"/><path class="cls-15" d="M392.18,668H376.87c-3.21,0-6.78-3.46-7.67-9.81s-7.5-9.81-8.93-15,5.89-12.51,5.89-12.51l1.23-1.69,1.27-1.77,12.13,3.08s.3,3.11.49,7.08c.13,2.86.2,6.17.05,9.08-.36,6.92,1.8,14.38,7.5,15.73S392.18,668,392.18,668Z"/><path class="cls-15" d="M498.81,668.11h-40.6a3.06,3.06,0,0,1-.86-.28c-2.72-1.48-1.87-12.85-1.54-16.36.06-.65.11-1,.11-1s14.27-12.5,16.24-2.93c.06.3.13.59.21.88h0c2.48,9,13.55,13,19.95,14.16C497.21,663.43,498.48,666.55,498.81,668.11Z"/><path class="cls-2" d="M490.62,418.38s-2.17,28.78-4.71,63.36c-3.47,47-7.63,104.7-8,115.63-.72,19-3.57,49.35-3.57,49.35s-6.78,7.22-20.35,4.17c0,0-12.09-43.35-15.54-89.21-.05-.75-.1-1.51-.16-2.27-3.21-46.69-8.2-145-8.2-145Z"/><path class="cls-6" d="M490.62,418.38s-2.17,28.78-4.71,63.36l-47.5,79.94c-.05-.75-.1-1.51-.16-2.27-3.21-46.69-8.2-145-8.2-145Z"/><path class="cls-2" d="M480.72,421.8S441.64,526,416,575s-33.73,62.64-33.73,62.64-14.72-6.26-16.06-10.53c0,0,9.83-94.54,27-117.59,9.72-13,21.14-52.1,21.68-65.77S418.36,403,418.36,403Z"/><path class="cls-22" d="M391.25,404.44s-1,13-1.76,15-5.68,8.19-6.25,8.1-.91-.58-.63-1.84,2-5.15,1.46-5.05-6.2,11.07-8.45,10.45-4.45-8.42-3.11-13.93,10.43-14.16,10.78-15.05C386.24,394.61,391.25,404.44,391.25,404.44Z"/><path class="cls-15" d="M387.05,407.75c4.33,1.47,5,1.14,5,1.14s21.05-40.77,23.19-44.5S460,318.67,460,318.67L449,275.28S400.6,342,395.38,351.53c-8.64,15.82-13.71,52.54-13.71,52.54A12.72,12.72,0,0,0,387.05,407.75Z"/><path class="cls-23" d="M498.87,335.7c-.15,8.91-.64,18.93-1.29,29.1l-.12,1.81c-.42,6.31-.88,12.62-1.4,18.78q-.31,3.71-.67,7.31l0,.33c0,.89-.12,1.87-.22,2.76-2.13,23.07-4.37,41.3-4.78,41.58a2.33,2.33,0,0,1-1.67.45c-5.69-.76-22.66.61-36.56-2.6-11.72-2.63-21.82-7.62-32.52-14.35-1.42-.89-4.65-3.25-4.39-5,.26-1.94.74-4.75,1.34-8.28,2.11-12.27,5.75-33.39,7-58.09.24-4.61.6-9.15,1.05-13.62a217.27,217.27,0,0,1,5.67-32.52c4.76-18.25,11.76-32.23,20.55-37.69,1.15-.69,7.32,3.49,13,7.36a23.87,23.87,0,0,0,16.12,4.07l4.72,5.55c5.71,7.07,11.8,16.48,13.46,29.85.12,1,.23,2,.32,3.15C498.89,321.08,499,328,498.87,335.7Z"/><path class="cls-15" d="M498.87,335.7c-.15,8.91-.64,18.93-1.29,29.1l-.12,1.81C465,345,460,305.39,460,305.39c16,.74,28.68,4.65,38.47,10.24C498.89,321.08,499,328,498.87,335.7Z"/><path class="cls-23" d="M600.68,299.35c-1.68-4.82-4.28-4.51-4.28-4.51s-48.32,12.81-52.65,13.36-52-19.81-52-19.81-18.77-9-27.56-.78c-7.64,7.12-8,16.12-6.2,23.69a21.74,21.74,0,0,0,18,16.84c19.45,2.64,58.27,7.6,66.41,6.4,18.11-2.68,59.14-27.88,59.14-27.88A17.26,17.26,0,0,0,600.68,299.35Z"/><g id="man"><path class="cls-14" d="M1077.08,393.55s6.71,6.61,5.4,11.32-7.37,7.83-8.19,13.58-4.09,8.88-7,8.88h-14s-2.17-4,3.07-5.26,7.21-8,6.88-14.24a121.11,121.11,0,0,1,.49-14.63l11.14-2.79Z"/><path class="cls-14" d="M993.42,426.55c-.68.36-3.07.61-6.36.78H955.29c.11-1,.85-4.59,6-5.48,5.87-1,16-4.64,18.31-12.63.07-.25.14-.52.19-.78,1.8-8.53,14.9,2.61,14.9,2.61s0,.34.09.92C995.13,415.11,995.9,425.23,993.42,426.55Z"/><path class="cls-3" d="M962.89,198.32s2,26.4,4.33,58.13c3.18,43.1,7,96.05,7.37,106.08.66,17.42,3.28,45.28,3.28,45.28s6.22,6.62,18.66,3.83c0,0,11.09-39.77,14.26-81.85l.15-2.08c2.95-42.84,7.53-133,7.53-133Z"/><path class="cls-4" d="M962.89,198.32s2,26.4,4.33,58.13l43.57,73.34.15-2.08c2.95-42.84,7.53-133,7.53-133Z"/><path class="cls-3" d="M972,201.45s35.86,95.61,59.43,140.53,30.94,57.47,30.94,57.47,13.51-5.74,14.74-9.66c0,0-9-86.74-24.8-107.88-8.93-12-19.4-47.81-19.9-60.34s-3.19-37.36-3.19-37.36Z"/><path class="cls-24" d="M861.39,149.6s-9.73-2.36-11.36-2.25-7.37,2.67-7.44,3.17.19.89,1.18,1,4.25-.37,4,.05-9.59,2.38-9.69,4.39,5,5.74,9.38,6,12.88-5.12,13.61-5.19C867.32,156.15,861.39,149.6,861.39,149.6Z"/><path class="cls-6" d="M857.22,152.23c-1.39-4.73-1.06-5.48-1.06-5.48s39.42-22.67,43-25,44.35-48.42,44.35-48.42l41.72,12.22s-64.57,52.32-73.82,58c-15.3,9.31-50.71,14.58-50.71,14.58A13.91,13.91,0,0,1,857.22,152.23Z"/><path class="cls-25" d="M956.18,50.94s-14.63,27.38-28.93,31c0,0,.6-9.2,4.08-15.49-1.43-1.79-2.68-3.43-3.76-4.9a92.48,92.48,0,0,1-5.31-7.91l4.85-13.88,3.29-9.42a45.23,45.23,0,0,0,5.15,7.89C944.92,49.65,956.18,50.94,956.18,50.94Z"/><path class="cls-26" d="M935.55,38.19s1.74,13.72-8,23.32a92.48,92.48,0,0,1-5.31-7.91l4.85-13.88A26.08,26.08,0,0,1,935.55,38.19Z"/><path class="cls-25" d="M918.4,55.62s21.86-9.06,16.34-23.45-6.41-25.26-20.6-20.08-14.77,11.84-14,17.12S912.57,57.61,918.4,55.62Z"/><path class="cls-2" d="M1031.31,191.44c-8.82,13.48-74.74,31.5-74,22.17a107.78,107.78,0,0,0,0-18.41q-.24-3-.7-6.36c-1.67-12.27-5.65-28-14.52-46.29q-1-2.06-2.08-4.14a147.06,147.06,0,0,1-9.14-21.85c-4.57-14-6.41-27.47-4.1-36.25l0-.12C940.61,73.41,946,47.12,946,47.12s47,9,73.35,75.64C1019.3,122.76,1039,179.7,1031.31,191.44Z"/><path class="cls-6" d="M957.34,195.2q-.24-3-.7-6.36c-1.67-12.27-5.65-28-14.52-46.29,1.52-9.82,3.62-18,5.93-21.67,9.38-14.95,14.84-17.28,14.84-17.28S977,166.67,957.34,195.2Z"/><path class="cls-24" d="M883.24,180.19s-13,.73-15,1.5-8.34,6.15-8.27,6.79.54,1.05,1.81.77,5.2-2.09,5.08-1.48S855.6,194.4,856.14,197s8.25,5.3,13.79,4,14.45-11.32,15.35-11.68C892.88,186.15,883.24,180.19,883.24,180.19Z"/><path class="cls-2" d="M880.78,185.44c-2.6-4.48-.72-6.52-.72-6.52s40.17-33.46,43.32-36.84,17.74-57.21,17.74-57.21,5-21.78,16.78-24.18c10.21-2.09,17.27,3.29,21.89,9.59a24.37,24.37,0,0,1,1.48,26.06c-10.26,18.39-30.95,54.88-37,61.12-13.45,13.88-58.45,33.27-58.45,33.27A16.08,16.08,0,0,1,880.78,185.44Z"/><path class="cls-14" d="M937.88,5.43c.15-.32.6-.66,1.68-1a4.28,4.28,0,0,0-2.2-.08c-.61-1.6-2.1-4.31-4.9-4.33a3.51,3.51,0,0,1,2.2,2.15C930.82-.43,923.72-1.18,906,5.1c-23.39,8.29-11.7,22.72-8.16,23.88s10.07-6.27,15.93-7.28,9,7.68,11.28,8.4,1-1.26,3.31-3.24,3.69,2.68,3.64,6,4.51,6.38,4.51,6.38L939.17,34c2.68-5.22,2-24.2-.61-27.61C938.34,6,938.11,5.74,937.88,5.43Z"/></g><rect class="cls-27" y="716.73" width="1323.65" height="5.02" rx="1.79"/><polygon class="cls-10" points="568.3 667.4 568.3 695.55 505.67 667.4 568.3 667.4"/><rect class="cls-3" x="897.19" y="427.33" width="207.14" height="289.4"/><rect class="cls-4" x="833.32" y="427.33" width="207.14" height="289.4"/><polygon class="cls-10" points="1104.33 427.33 1104.33 470.6 1040.47 427.33 1104.33 427.33"/></svg>